<svg width="9" height="17" viewBox="0 0 9 17" fill="none" xmlns="http://www.w3.org/2000/svg">
<path d="M6.47823 0.810618C5.17191 0.661923 3.85294 0.661923 2.54662 0.810618L1.19426 0.964932C1.09723 0.976083 1.00702 1.0204 0.938891 1.09038C0.870761 1.16036 0.828886 1.25173 0.820344 1.34902L0.716054 2.52079C0.541263 4.4905 0.541263 6.47181 0.716054 8.44152L0.820344 9.61329C0.829669 9.71884 0.878188 9.81708 0.956342 9.88865C1.0345 9.96021 1.13662 9.99991 1.24259 9.99992H2.99854V16.2759C2.9987 16.3636 3.02607 16.4492 3.07688 16.5207C3.12769 16.5922 3.19944 16.6462 3.28223 16.6752C3.36502 16.7043 3.45478 16.7069 3.53913 16.6827C3.62347 16.6586 3.69825 16.6089 3.75315 16.5405L4.08467 16.125C6.0599 13.6523 7.63282 10.8836 8.74546 7.92092L8.90656 7.49105C8.93068 7.4269 8.93889 7.35786 8.93049 7.28984C8.92209 7.22183 8.89732 7.15686 8.85831 7.10051C8.8193 7.04416 8.76721 6.99811 8.7065 6.96631C8.6458 6.9345 8.57828 6.91788 8.50975 6.91788H6.20946L8.18077 1.53216C8.20288 1.4719 8.21101 1.4074 8.20456 1.34353C8.1981 1.27966 8.17722 1.21809 8.1435 1.16347C8.10978 1.10884 8.0641 1.06259 8.00989 1.0282C7.95569 0.993808 7.89438 0.972175 7.8306 0.964932L6.47823 0.810618Z" fill="#616161"/>
</svg>
